<svg preserveAspectRatio="none" overflow="visible" style="display: block;" width="23.98" height="23.99" viewBox="0 0 23.98 23.99" fill="none" xmlns="http://www.w3.org/2000/svg">
<path id="Vector" d="M23.61 9C22.28 3.83 17.59 0 12 0C6.41 0 1.73 3.83 0.39 9C0.14 9.96 0 10.96 0 12C0 12.05 0 12.09 0 12.13C0.07 18.03 4.38 22.89 10.03 23.82C10.67 23.93 11.32 23.99 11.99 23.99C12.66 23.99 13.31 23.92 13.95 23.82C19.6 22.89 23.92 18.03 23.98 12.13C23.98 12.08 23.98 12.04 23.98 12C23.98 10.96 23.83 9.96 23.59 9H23.61ZM12 3C15.33 3 18.22 4.81 19.78 7.49C20.17 8.16 19.69 9 18.91 9H5.09C4.32 9 3.83 8.16 4.22 7.49C5.78 4.81 8.67 3 12 3ZM4.5 12.52C7.48 13.57 9.74 16.15 10.34 19.32C10.49 20.1 9.75 20.74 9 20.47C6.02 19.42 3.76 16.84 3.16 13.67C3.01 12.89 3.75 12.25 4.5 12.52ZM13.66 19.33C14.26 16.16 16.52 13.58 19.5 12.53C20.25 12.27 20.98 12.9 20.84 13.68C20.24 16.85 17.98 19.43 15 20.48C14.25 20.74 13.52 20.11 13.66 19.33Z" fill="#A67F36"/>
</svg>
